<?xml version="1.0" standalone="no"?>
<!DOCTYPE svg PUBLIC "-//W3C//DTD SVG 20010904//EN"
 "http://www.w3.org/TR/2001/REC-SVG-20010904/DTD/svg10.dtd">
<svg version="1.0" xmlns="http://www.w3.org/2000/svg"
 width="3200.000000pt" height="1796.000000pt" viewBox="0 0 3200.000000 1796.000000"
 preserveAspectRatio="xMidYMid meet">

<g transform="translate(0.000000,1796.000000) scale(0.100000,-0.100000)"
fill="#000000" stroke="none">
<path d="M7823 15702 c-12 -9 -27 -30 -32 -45 -16 -41 -15 -6420 0 -6503 6
-32 20 -81 32 -109 26 -61 5312 -6673 5374 -6723 57 -45 136 -79 213 -91 71
-12 5072 -16 5129 -5 49 10 81 49 81 100 0 43 -63 122 -5321 6696 -2926 3659
-5332 6663 -5345 6676 -31 27 -98 30 -131 4z"/>
<path d="M24046 15698 c-22 -21 -6959 -8691 -6999 -8748 -34 -49 -15 -121 40
-149 31 -16 5110 -16 5185 0 69 15 152 58 205 106 74 68 1677 2083 1700 2138
12 28 26 77 32 109 15 84 16 6460 0 6504 -6 17 -21 38 -34 46 -36 24 -99 20
-129 -6z"/>
<path d="M23590 7085 c0 -11 12 -15 50 -15 l50 0 0 -140 c0 -118 2 -140 15
-140 13 0 15 22 15 140 l0 140 55 0 c42 0 55 3 55 15 0 13 -20 15 -120 15
-100 0 -120 -2 -120 -15z"/>
<path d="M23890 6946 c0 -132 2 -156 15 -156 13 0 15 22 15 135 0 74 3 135 8
135 4 0 31 -61 60 -135 30 -74 59 -135 65 -135 7 0 37 62 67 138 l55 137 3
-137 c2 -130 4 -138 22 -138 19 0 20 7 20 155 l0 155 -34 0 -33 0 -48 -125
c-27 -69 -50 -124 -52 -122 -2 2 -25 58 -51 123 -46 115 -49 119 -80 122 l-32
3 0 -155z"/>
</g>
</svg>
